<?xml version="1.0" standalone="no"?>
<!DOCTYPE svg PUBLIC "-//W3C//DTD SVG 20010904//EN"
 "http://www.w3.org/TR/2001/REC-SVG-20010904/DTD/svg10.dtd">
<svg version="1.0" xmlns="http://www.w3.org/2000/svg"
 width="512.000000pt" height="512.000000pt" viewBox="0 0 512.000000 512.000000"
 preserveAspectRatio="xMidYMid meet">

<g transform="translate(0.000000,512.000000) scale(0.100000,-0.100000)"
fill="#000000" stroke="none">
<path d="M1355 5113 c-201 -24 -375 -76 -544 -163 -411 -213 -701 -605 -787
-1065 -18 -94 -19 -171 -19 -1325 0 -1154 1 -1231 19 -1325 115 -617 594
-1096 1211 -1211 94 -18 171 -19 1335 -19 l1235 0 105 23 c464 102 830 378
1039 782 68 131 109 247 143 400 l23 105 0 1235 c0 1164 -1 1241 -19 1335
-107 576 -532 1036 -1093 1185 -182 49 -210 50 -1453 48 -641 0 -1178 -3
-1195 -5z m1272 -1228 c51 -2 191 -19 310 -37 347 -50 594 -43 765 22 l47 18
7 -35 c12 -66 -2 -204 -26 -256 -81 -172 -281 -204 -740 -121 -74 14 -143 27
-152 30 -17 5 -18 -55 -18 -1155 l0 -1161 -257 2 -258 3 -3 1193 -2 1192 -68
0 c-98 -1 -214 -24 -287 -58 -174 -82 -243 -240 -232 -537 5 -163 27 -247 82
-320 19 -25 35 -48 35 -52 0 -12 -135 6 -200 26 -140 44 -214 124 -251 272
-18 71 -21 102 -16 214 9 226 64 364 201 500 161 160 396 246 721 264 127 7
152 7 342 -4z"/>
</g>
</svg>
